<svg id="ae4fd8e0-8bce-42b9-9b9a-f9835112ab35" data-name="Layer 1" xmlns="http://www.w3.org/2000/svg" width="300" height="300" viewBox="0 0 300 300">
  <defs>
    <style>
      .aabd6b9e-31cf-478b-b8db-40efa123881d, .b77287f4-7e10-4697-823a-57a355eb7b56 {
        fill: none;
        stroke: #000;
        stroke-miterlimit: 10;
        stroke-width: 6px;
      }

      .aabd6b9e-31cf-478b-b8db-40efa123881d {
        stroke-linecap: round;
      }
    </style>
  </defs>
  <line class="aabd6b9e-31cf-478b-b8db-40efa123881d" x1="30" y1="214.286" x2="270" y2="214.286"/>
  <g>
    <circle cx="164.497" cy="105.432" r="23"/>
    <path d="M152.552,164.017a104.944,104.944,0,0,1-27.746,15.535c-17.578,6.687-28.832-1.943-37.95-16.118-4.851-7.3-9.1-14.631-13.339-22.206-2.1-3.724-4.187-7.446-6.218-11.216a1.68,1.68,0,0,1,2.634-2c9.117,8.722,17.848,18.1,27.062,26.633,2.023,1.831,4.561,3.947,6.758,5.546,1.582,1.16,4.215,2.732,5.809,2.9,2.312.234,3.27-.623,5.547-1.789,1.44-.839,2.839-1.819,4.218-2.814,6.376-4.782,13.208-10.38,20.681-13.978C152.582,138.723,162.966,155.089,152.552,164.017Z"/>
    <path d="M221.211,121.827c14.276,15.811,30.26,47.9,10.326,65.294-13.6,10.331-31.642,7-46.883,3.967-7.378-1.737-14.678-3.771-21.844-6.141a1.825,1.825,0,0,1,.491-3.579c4.966-.037,9.9.028,14.8-.056,9.351-.235,19.306-.415,28.3-2.494,5.26-1.488,13.65-3.178,12.874-9.928-.614-5.18-3.785-10.637-6.409-15.311-3.474-5.886-7.249-11.438-10.891-17.407C194.739,123.521,211.265,111.336,221.211,121.827Z"/>
    <circle cx="114.164" cy="138" r="6"/>
    <path class="b77287f4-7e10-4697-823a-57a355eb7b56" d="M69.62,130.019c20.132-11.623-1.965-39.532-17.609-30.5S49.489,141.642,69.62,130.019Z"/>
  </g>
</svg>
